<?xml version="1.0" standalone="no"?>
<!DOCTYPE svg PUBLIC "-//W3C//DTD SVG 1.1//EN" "http://www.w3.org/Graphics/SVG/1.1/DTD/svg11.dtd">
<svg version="1.1" xmlns="http://www.w3.org/2000/svg" viewBox="0 0 126.3698435243432 47.94867818945113" width="126.3698435243432" height="47.94867818945113" class="icon">
  <!-- svg-source:excalidraw -->
  <metadata></metadata>
  <defs>
    <style class="style-fonts">
    </style>
  </defs>
  <g stroke-linecap="round">
    <g transform="translate(10.369843524343196 37.94867818945113) rotate(0 53 0)">
      <path d="M0 0 C17.67 0, 88.33 0, 106 0 M0 0 C17.67 0, 88.33 0, 106 0" stroke="currentColor" stroke-width="4" fill="none"></path>
    </g>
  </g>
  <mask></mask>
  <g stroke-linecap="round">
    <g transform="translate(17.05555605872985 23.356504780904743) rotate(0 45.17720398572283 0)">
      <path d="M0 0 C15.06 0, 75.3 0, 90.35 0 M0 0 C15.06 0, 75.3 0, 90.35 0" stroke="currentColor" stroke-width="4" fill="none"></path>
    </g>
  </g>
  <mask></mask>
  <g stroke-linecap="round">
    <g transform="translate(10 10) rotate(0 53 0)">
      <path d="M0 0 C17.67 0, 88.33 0, 106 0 M0 0 C17.67 0, 88.33 0, 106 0" stroke="currentColor" stroke-width="4" fill="none"></path>
    </g>
  </g>
  <mask></mask>
</svg>